<svg id="Layer_1" data-name="Layer 1" xmlns="http://www.w3.org/2000/svg" viewBox="0 0 559.75 549.12"><defs><style>.cls-1{fill:#fff;}.cls-2{fill:#191919;}.cls-3{fill:#231f20;}</style></defs><title>But-first-coffee</title><path class="cls-1" d="M238.84,247.37a137.14,137.14,0,0,0,71.63,12,173.91,173.91,0,0,0,36.21-7.56c8.85-2.91,17.55-6.11,25.15-11.59,6.63-4.78,13.36-10.61,17.68-17.66,5.37-8.77,3.77-16.58-4.61-22.13-.22,7.49-2.32,23.72-2.65,24.14-19,24.51-55.82,29.55-84.79,29.27-31.16-.3-61.6-10.11-81.76-35.06a3,3,0,0,1-.26-1.45c.26-7.4-.19-10.41.23-16-7.56,4.8-4.85,16.78-1.76,23.87C218.55,235.9,228.53,242.68,238.84,247.37Z" transform="translate(-25.3 -24.18)"/><path class="cls-1" d="M267.73,216.71c18.3,4.19,37.65,4.17,56.27,2.46a154.56,154.56,0,0,0,20.34-2.94c9.77-2.23,24.67-6,27.16-17.36-3-13.7-14.4-21.15-27-25.5-20.5-2.62-41.32-4.28-61.77-.23-17.55,3.48-36.46,10.9-39.82,30.45C248.93,210.52,259.69,214.86,267.73,216.71Zm37.88-28.62c3.18-2.49,8-2.65,11.9-3,5-.41,9.93-1,14.9-1.49,4.2-.42,21.58-3.8,21.11,3.86,0,0,.35,1.21-.11,1.67-7.3,7.38-17.15,22.29-29.25,16.33C320.86,203.86,299.25,193.08,305.61,188.09Z" transform="translate(-25.3 -24.18)"/><path class="cls-1" d="M254.93,244.34c13.64,5,28.14,6.89,42.62,6.89,29.21,0,62.83-5,83.18-28.1a153.13,153.13,0,0,1,1.12-16.9,26.6,26.6,0,0,1-3.74,4.47c-13.27,12.77-33.79,19.56-51.74,21.78-14.59,1.8-29.74,1.61-44.36.39-20.88-1.74-55.71-7.56-63.3-29.55-.22,5.07-.7,10.13-1.34,14.89C228.12,229.37,240.24,239,254.93,244.34Z" transform="translate(-25.3 -24.18)"/><path class="cls-1" d="M312.88,196.69c9.7-4.85,23.21-5.64,33.63-3.1l0,0a59.75,59.75,0,0,1,4.8-4.9c.87-6.46-18.49-3.24-21.74-2.82-6.46.83-13.56.71-19.83,2.4C303.31,190,309.13,194.21,312.88,196.69Z" transform="translate(-25.3 -24.18)"/><path class="cls-1" d="M254.45,225.9c20.17,5,41.56,5.85,62.26,4.64,18.33-1.06,37.66-6,52.93-16.61,6.56-4.54,15.72-12.32,13.07-21.45-3.35-11.56-17.51-18.2-27.72-22.31a185.06,185.06,0,0,0-72.16-13c-22.63.51-54.9,6.12-63.45,30.69a.88.88,0,0,1,0,.38C216.52,210.37,235.7,221.2,254.45,225.9ZM243.6,176.73c12.12-9.54,29.92-11.65,44.82-12.49a159,159,0,0,1,46.24,4.19,106.92,106.92,0,0,1,11.23,3.35h0a1,1,0,0,1,.36.13c12.32,4.55,24.4,10.89,26.88,24.33a6.43,6.43,0,0,1,.37,2.22c-2,12.8-17.92,17.79-28.8,20.14a186.13,186.13,0,0,1-31,3.6c-13.31.59-26.87.41-40-1.92-10.27-1.81-21.92-4.71-29.73-12.1C234.85,199.51,233,185.09,243.6,176.73Zm-16.88,26.85a1,1,0,0,1,.16-.66,3.76,3.76,0,0,1,.5-1c1.23-1.73,4.35-1.57,6-.55a22.67,22.67,0,0,1,6.07,5.12c.94,1.19,4,4.08,3,6.36s-5.56,2.54-8.07.89a21.22,21.22,0,0,1-7.38-7.9A8.18,8.18,0,0,1,226.71,203.58Z" transform="translate(-25.3 -24.18)"/><path class="cls-1" d="M282.27,268.69c-19.49-1.91-40.2-7.8-56.57-18.89a61.19,61.19,0,0,1-5.47-4.17c6.25,26.49,9,53.83,13.93,80.59,2.44,13.32,5.72,26.45,8.16,39.76,2.39,13.07,4.92,26,8.06,38.87a.87.87,0,0,1,.13.12c6.52,8.76,14,15.37,24.34,19.19a82.25,82.25,0,0,0,28.63,5c18.7,0,45.18-4.36,51.4-25a.93.93,0,0,1,.19-.35c.62-5.94,2.23-11.82,3.16-17.72,1.09-6.93,2-13.89,2.89-20.86,1.81-14.2,4.07-28.26,6.6-42.34,4.85-26.92,9.17-54.2,15.57-80.81-7.13,6.28-16.43,10.89-24.61,14.43A156.56,156.56,0,0,1,282.27,268.69Z" transform="translate(-25.3 -24.18)"/><path class="cls-1" d="M278.81,171.84c17.29-3.51,35.24-3.72,52.83-1.93-1.94-.4-3.86-.76-5.72-1.08A161.21,161.21,0,0,0,281.65,167c-8.59.91-17.33,2.32-25.42,5.43-6.51,2.49-14.26,6.39-16.8,13.42a16.49,16.49,0,0,0,2.09,16C243.21,183.65,262.86,175.08,278.81,171.84Z" transform="translate(-25.3 -24.18)"/><path class="cls-1" d="M329.39,194.37a74.55,74.55,0,0,0-15.16,3.22l.3.2c4.11,2.79,8.83,6,13.85,6.74,6.8,1,12.11-4.33,16.95-9.6C340,194.53,334.78,193.88,329.39,194.37Z" transform="translate(-25.3 -24.18)"/><path class="cls-1" d="M232.82,251.61a128.75,128.75,0,0,0,51.59,15.06c24.12,1.73,49-1.9,71.35-11.38,14.6-6.21,34.58-15.85,37-33.15-5.07,10.61-17.23,19.59-26.07,24.42-10.34,5.66-22.42,9.13-33.88,11.67A168.17,168.17,0,0,1,292,262.55a128.76,128.76,0,0,1-37.62-6.66c-11.05-3.68-22.74-8-31.74-15.66a38,38,0,0,1-13.49-23.14c-.05-.3-.09-.61-.14-.91a25.4,25.4,0,0,0,4.37,19.3C218.33,242.4,225.37,247.58,232.82,251.61Z" transform="translate(-25.3 -24.18)"/><path class="cls-2" d="M234.33,213.72c2.51,1.65,7.09,1.39,8.07-.89s-2.06-5.17-3-6.36a22.67,22.67,0,0,0-6.07-5.12c-1.6-1-4.72-1.19-6,.55a3.76,3.76,0,0,0-.5,1,1,1,0,0,0-.16.66,8.18,8.18,0,0,0,.24,2.24A21.22,21.22,0,0,0,234.33,213.72Z" transform="translate(-25.3 -24.18)"/><path class="cls-2" d="M324.17,205.49c12.1,6,21.95-8.95,29.25-16.33.46-.46.11-1.67.11-1.67.48-7.66-16.91-4.28-21.11-3.86-5,.5-9.92,1.08-14.9,1.49-3.86.31-8.72.47-11.9,3C299.25,193.08,320.86,203.86,324.17,205.49Zm4.22-1c-5-.74-9.75-4-13.85-6.74l-.3-.2a74.55,74.55,0,0,1,15.16-3.22c5.39-.49,10.61.17,15.94.56C340.5,200.2,335.19,205.52,328.39,204.53Zm-18.62-16.24c6.27-1.69,13.37-1.57,19.83-2.4,3.25-.42,22.6-3.64,21.74,2.82a59.75,59.75,0,0,0-4.8,4.9l0,0c-10.42-2.54-23.92-1.75-33.63,3.1C309.13,194.21,303.31,190,309.77,188.29Z" transform="translate(-25.3 -24.18)"/><path class="cls-2" d="M273.75,220.3c13.16,2.32,26.71,2.5,40,1.92a186.13,186.13,0,0,0,31-3.6c10.87-2.35,26.82-7.34,28.8-20.14a6.43,6.43,0,0,0-.37-2.22c-2.49-13.44-14.56-19.78-26.88-24.33a1,1,0,0,0-.36-.13h0a106.92,106.92,0,0,0-11.23-3.35,159,159,0,0,0-46.24-4.19c-14.9.84-32.7,2.95-44.82,12.49-10.61,8.36-8.75,22.78.42,31.46C251.83,215.59,263.48,218.48,273.75,220.3Zm-34.32-34.44c2.54-7,10.29-10.92,16.8-13.42,8.09-3.11,16.84-4.51,25.42-5.43a161.21,161.21,0,0,1,44.27,1.82c1.86.31,3.78.68,5.72,1.08-17.6-1.79-35.55-1.58-52.83,1.93-15.94,3.23-35.6,11.81-37.29,30A16.49,16.49,0,0,1,239.43,185.86Zm43.28-12.73c20.45-4.05,41.27-2.39,61.77.23,12.63,4.35,24,11.8,27,25.5C369,210.22,354.11,214,344.35,216.22A154.56,154.56,0,0,1,324,219.17c-18.62,1.71-38,1.73-56.27-2.46-8-1.84-18.8-6.19-24.85-13.13C246.24,184,265.15,176.6,282.7,173.13Z" transform="translate(-25.3 -24.18)"/><path class="cls-2" d="M218.36,244a.77.77,0,0,0-.11.55c4.27,28,8.84,56.05,14,83.9,2.45,13.25,5.74,26.32,8.19,39.57,2.35,12.7,3.81,26.06,8.39,38.2a.83.83,0,0,0,1,.48c9.23,18.94,34.44,24.85,53.59,25.12,19.34.27,47.75-5,53.19-27a1,1,0,0,0,0-.48c4.63-11.91,5.22-26.2,6.82-38.75,1.73-13.53,3.84-26.94,6.24-40.36,5.08-28.28,11.34-56.51,15.54-84.92,6.24-6.16,10.33-13.81,9.58-23.47a.72.72,0,0,0-.11-.34,19.61,19.61,0,0,0,.33-5.71c-.54-5.73-5.13-9.81-9.89-12.37l-.08,0a16.84,16.84,0,0,0,.27-2.2c.34-6.71-4.66-12.36-9.42-16.39-14.83-12.57-36.49-17.89-55.15-21.29-20.48-3.73-42-4.47-62.49-.21-16.65,3.47-35.1,11.85-40.78,29.1a1.81,1.81,0,0,0-.5,1c-.36,3.44-.8,7.09-1.14,10.8-4.76,2.1-6.69,6.3-7.09,11C203.21,223.38,208.94,235.15,218.36,244Zm149.37,78.86c-2.53,14.08-4.79,28.15-6.6,42.34-.89,7-1.8,13.92-2.89,20.86-.93,5.9-2.53,11.78-3.16,17.72a.93.93,0,0,0-.19.35c-6.22,20.69-32.7,25-51.4,25a82.25,82.25,0,0,1-28.63-5C264.51,420.34,257,413.74,250.51,405a.87.87,0,0,0-.13-.12c-3.13-12.9-5.66-25.8-8.06-38.87-2.44-13.31-5.72-26.45-8.16-39.76-4.91-26.76-7.68-54.09-13.93-80.59a61.19,61.19,0,0,0,5.47,4.17c16.37,11.09,37.08,17,56.57,18.89a156.56,156.56,0,0,0,76.41-12.25c8.19-3.53,17.49-8.14,24.61-14.43C376.89,268.63,372.57,295.91,367.72,322.82Zm-148.35-135c8.54-24.57,40.82-30.18,63.45-30.69a185.06,185.06,0,0,1,72.16,13c10.21,4.11,24.37,10.75,27.72,22.31,2.65,9.13-6.5,16.9-13.07,21.45-15.27,10.58-34.6,15.55-52.93,16.61-20.7,1.2-42.09.41-62.26-4.64-18.74-4.7-37.93-15.53-35-37.66A.88.88,0,0,0,219.38,187.86Zm-.67,15.47c7.59,22,42.42,27.8,63.3,29.55,14.62,1.21,29.78,1.41,44.36-.39,18-2.22,38.47-9,51.74-21.78a26.6,26.6,0,0,0,3.74-4.47,153.13,153.13,0,0,0-1.12,16.9c-20.35,23.1-54,28.09-83.18,28.1-14.48,0-29-1.89-42.62-6.89-14.69-5.39-26.81-15-37.57-26.12C218,213.46,218.49,208.4,218.71,203.33Zm-3.05-2c-.43,5.56,0,8.57-.23,16a3,3,0,0,0,.26,1.45c20.16,24.95,50.6,34.76,81.76,35.06,29,.28,65.79-4.76,84.79-29.27.33-.42,2.44-16.65,2.65-24.14,8.38,5.55,10,13.36,4.61,22.13-4.31,7-11,12.88-17.68,17.66-7.6,5.48-16.3,8.68-25.15,11.59a173.91,173.91,0,0,1-36.21,7.56,137.14,137.14,0,0,1-71.63-12c-10.3-4.69-20.28-11.47-24.94-22.16C210.81,218.11,208.1,206.13,215.66,201.33ZM209,216.18c0,.3.08.61.14.91a38,38,0,0,0,13.49,23.14c9,7.65,20.69,12,31.74,15.66A128.76,128.76,0,0,0,292,262.55a168.17,168.17,0,0,0,40.82-4.33c11.46-2.54,23.53-6,33.88-11.67,8.84-4.83,21-13.81,26.07-24.42-2.39,17.31-22.36,26.94-37,33.15-22.32,9.48-47.23,13.11-71.35,11.38a128.75,128.75,0,0,1-51.59-15.06c-7.45-4-14.49-9.21-19.47-16.14A25.4,25.4,0,0,1,209,216.18Z" transform="translate(-25.3 -24.18)"/><path class="cls-3" d="M90.05,150.25a2.81,2.81,0,0,1,.12,1.53q-.28,1.07-.9,4t-.93,4.4l3.83-.41,3.83-.41q4.59-.36,12.34,2.62,6.89,2.94,11.6,11.06a6.13,6.13,0,0,1,.66,3.3,77.68,77.68,0,0,1-2.83,10.48,16,16,0,0,1-1.63,3.49q-1.09,1.78-1.87,3a28.26,28.26,0,0,1-2.65,3.26q-1.87,2.06-2.46,2.78t-3,3.13q-2.38,2.41-2.73,2.71l-.23.2q-2.59,3.1-4.1,4.64a7.53,7.53,0,0,1-2.63,2.12,5,5,0,0,1-1.35.78L95,213l-.1-.11q-2,.75-4-1.56Q83.63,204,68.32,188q-1.64-1.63-4.48-4.85l-4.26-4.84q-2.33-2.65-7-7.73t-7-7.73q-1.83-2.07-5.25-6.42-8.07-10.08-12.22-15a11,11,0,0,0-2.15-2.2c-.27-.31-.48-.46-.62-.47q.94-1,3.05-3.61t3-3.51a32,32,0,0,1,3.43-2.72q11.44-7.22,18.45-8.09,8.78-1.19,11.39-1.24,8.5-.33,16.09,7.1a11.72,11.72,0,0,1,1.78,2q1.05,1.43,1.46,1.89,3,3.45,4.15,10,.34,1.55,1,4.79T90.05,150.25Zm-8.29-4.76q-.18-.66-.47-2t-.47-2q-.09-.33-.83-2.44a19.67,19.67,0,0,0-1-2.51q-.25-.4-1.27-2.36t-1.89-2q-7.11-6.21-12.71-7.21-5.27-.87-15.43,1.53-1.31.14-1.37,1a1.32,1.32,0,0,0,.28.67,1.43,1.43,0,0,0,.62.58,27.7,27.7,0,0,0,3.08,2.1,22.82,22.82,0,0,1,3.38,2.44q1.94,2,11.83,12.49,4.7,4.87,15.14,15.31a1.74,1.74,0,0,1,.68-.39q.77-3.54,1.09-5.26a22,22,0,0,0,.23-4.61A17.09,17.09,0,0,0,81.76,145.49Zm19,20.66a41.07,41.07,0,0,0-7.22-.18q-4.63.2-6.58.08a9.65,9.65,0,0,1,1.1,1.48,40.79,40.79,0,0,1,5.49,7,75,75,0,0,0,4.85,6.78l5,5.64a16.58,16.58,0,0,0,1.44,1.4,16.76,16.76,0,0,1,1.33,1.28,14.26,14.26,0,0,1,1.6,2.28c.23-.2.68-.63,1.33-1.28s1.25-1.21,1.79-1.68q5-12.19-2.93-19.11A14.77,14.77,0,0,0,100.8,166.15Z" transform="translate(-25.3 -24.18)"/><path class="cls-3" d="M166.79,142.15q-4.13-11-8.34-20.64-5.66-13.18-11.86-26.41-2.25-5.07-7-15.05-3.28-6.61-4.9-9.57-.22-.4-.75-1.69t-1-2.33a10.51,10.51,0,0,1-.65-1.66,2.54,2.54,0,0,1,.15-1.48,3.24,3.24,0,0,1,.77-1.3,10.12,10.12,0,0,1,3-2.18,4.9,4.9,0,0,1,1.85-.14,2.34,2.34,0,0,1,1.53.56,13.6,13.6,0,0,1,2,4q1.15,3,1.44,3.59l4.8,8.75q1.37,3.45,4.31,10.24t4.31,10.24a65.19,65.19,0,0,0,2.65,6.43,32.78,32.78,0,0,1,1.64,3.3,55.68,55.68,0,0,0,2.43,6q1.72,3.78,2.34,5.54.83,1.83,2.59,5.67l2.66,5.81q3,7.44,3.4,11.62l.65,3.58a36.7,36.7,0,0,1,.61,4.3,12.29,12.29,0,0,1-.52,3.35,7,7,0,0,1-2.1,3.52q-13.47,12.47-26.87,8.79a21.7,21.7,0,0,1-8.83-4.61q-16.28-12.43-29.39-35.7-7.89-14.06-18.07-34.21a3.54,3.54,0,0,1-.18-2.09,3,3,0,0,1,.79-1.92q-.29-.54,5.22-3.57l5.73-3q6.58-4,8.68-3a9.36,9.36,0,0,1,3.5,3.51,45.42,45.42,0,0,1,3,6q1.51,3.55,2,4.36,3.1,5.65,4.79,8.4,8,15.77,11.69,22l2.33,4.24q1.44,2.62,2.06,3.6T141,131.7a29.62,29.62,0,0,0,2.84,3.43q.35.33,3,3.8a35,35,0,0,0,3.24,4q.64.53,3.43,3.37a51.08,51.08,0,0,0,4.49,4.19,14.26,14.26,0,0,0,4.38,2.24,6,6,0,0,0,5-.36Q170.08,151,166.79,142.15Z" transform="translate(-25.3 -24.18)"/><path class="cls-3" d="M205.2,37.43q.89-.25,10.9-2.66a2,2,0,0,1,2.43.66,2.58,2.58,0,0,1,.26,2.56,2.78,2.78,0,0,1-1.87,1.82l-3.32,1a29.39,29.39,0,0,0-3.42,1.15,13.54,13.54,0,0,0-1.29.53l-1.83.85a22.52,22.52,0,0,1,2.89,4.2,52.62,52.62,0,0,1,2.36,5.15q1.14,2.87,1.86,4.26a90.15,90.15,0,0,1,4.41,12Q221,76.81,221.79,79q5,13.57,6.18,18.67.55,1.92,2,6.37t2,6.86q.45,2.11,1.9,8.56t2.14,9.93q.68,4.6-.9,5.21a45.48,45.48,0,0,1-9.42,3.35,11.74,11.74,0,0,0-4.14.87q-2.83,1-3.42,1.15-3.62.73-4.67-2.33-4.11-11-6-16.48-6.92-20.69-13.52-42-2.78-9.1-8.09-27.54a4.09,4.09,0,0,0-1.07-2.33q-.75-.66-2.48,0-12.66,4.29-13,2a2,2,0,0,1,.11-1,6.4,6.4,0,0,1,1-1.81,6.11,6.11,0,0,1,2.19-1.83Q187.92,42.89,205.2,37.43Z" transform="translate(-25.3 -24.18)"/><path class="cls-3" d="M294,69.28,294.49,55q.45-14.27.75-14.26a93.69,93.69,0,0,1,2-14.36q0-.61,1-1.19a4.88,4.88,0,0,1,1.72-.7,33.27,33.27,0,0,1,8.45-.1l11.79,1.11,15,.63a5.31,5.31,0,0,1,3,.74,2.65,2.65,0,0,1,1,2.35q0,1.08-1.75,1.46-2.46-.1-8.14,0l-8.15.12a3.11,3.11,0,0,0-3.3,1.78,5.59,5.59,0,0,0,.27,4.54q2.48,6.87,2.09,23.44a68.67,68.67,0,0,0,.25,6.92,70.57,70.57,0,0,1,.23,7.38,1.89,1.89,0,0,0,2.05,2.39,17.47,17.47,0,0,1,4.88,1,1.5,1.5,0,0,1,1.15,1.89c0,.21-.58.44-1.72.7l-1.38-.06q-3.54,0-4.26.74t-.56,4.13a53.43,53.43,0,0,1-.26,6.06q-.37,5.13-.41,6.21a13.17,13.17,0,0,1-.21,1.37,3.71,3.71,0,0,0-.06,1.53,41.36,41.36,0,0,1-.21,5q-.27,2.68-.56,6c-.2,2.2-.3,3.44-.31,3.75l-1.23,7.32a3.77,3.77,0,0,1-1.3,1.64q-5.89,5-12.58,3.16-.76-.18-7.95-.95a4.63,4.63,0,0,1-3.1-1.21,5,5,0,0,1-.87-3.11q0-7.22.45-18t.76-10.8Z" transform="translate(-25.3 -24.18)"/><path class="cls-3" d="M379.45,32.66a8.61,8.61,0,0,1,5.39,3.91A8.89,8.89,0,0,1,386.59,43q-1.78,11.86-5.65,35.51-.25,2-.74,6t-.89,5.93q-.37,1.81-1.65,7.34t-1.74,8.57q-.55,2.71-1.24,7.66t-1,6.45q-.86,5.78-1.59,8.61a7.55,7.55,0,0,1-3.21,4.6,7.71,7.71,0,0,1-5.63,1.13q-3-.46-14-3.47-.75-.15-1.23-1.66a6.61,6.61,0,0,1,.07-2.65q2.88-17.27,4.65-26,3-16.46,5.31-24.61Q359.8,70,370.26,36.28l1-5Q376.75,32.12,379.45,32.66Z" transform="translate(-25.3 -24.18)"/><path class="cls-3" d="M415.54,118.47l-7.64,18.61q-2.81,7.31-3.69,7.46-1.08.24-9-1.47a47.77,47.77,0,0,1-7.82-2.34q-2.35-.74-2.77-1.56a6.68,6.68,0,0,1-.12-3.33q1.06-7.48,6-19.56,3.5-8.69,10.27-26.31.66-1.72,1.71-5.1t1.66-5L414.53,55.6q1-2.1,2.92-6.11l2.76-5.68a14.22,14.22,0,0,1,8.6,3.3A29.2,29.2,0,0,0,433,49.94a34.14,34.14,0,0,1,3.94,2.58q.38.31,3.05,2.32t3.47,2.73q.79.72,2.66,2.5a20.7,20.7,0,0,1,3,3.44,23.85,23.85,0,0,1,1.89,3.44,79.19,79.19,0,0,1,3.33,10.16,6,6,0,0,1-.35,3.48q-3.31,9.91-9.45,15.61-5.69,5.38-10.71,6.91-.94.3-9.7,3.84.38,2.45,1.55,8.16t1.62,8.84q.54,4.15,1.67,12.15t1.67,12.15c0,.23,0,.75,0,1.58a9.54,9.54,0,0,0,.14,1.78q.64,3-1.95,3.36a3.68,3.68,0,0,1-2-.26,2.9,2.9,0,0,1-1.48-1.06,14.76,14.76,0,0,1-2.29-6.47q-1-6.46-4.33-30.27-.38-2.45-.51-3.81a.88.88,0,0,1-.63-.08ZM436,62.12a38.33,38.33,0,0,1,0,4.69,10.75,10.75,0,0,1-1,3.89,24.76,24.76,0,0,0-1.3,3q-4.86,11.79-7,17.72c-.33.86-.66,1.78-1,2.75s-.65,2.05-1,3.24-.65,2.11-.9,2.78a.76.76,0,0,1,.3.28.74.74,0,0,0,.3.28q10.87-5.2,13-6.37A21.86,21.86,0,0,0,443.68,88q6.42-9.87,1-21A20.35,20.35,0,0,0,436,57.92,32.71,32.71,0,0,0,436,62.12Z" transform="translate(-25.3 -24.18)"/><path class="cls-3" d="M451,159.56a6.91,6.91,0,0,0,5,6.2q3.77.91,7.31-3.58a17.77,17.77,0,0,0,3.5-5.6l1.52-4q1.25-3.29,1.76-4.69t1.25-4a44,44,0,0,0,1.08-4.76,33.89,33.89,0,0,0,.41-4.27q.1-8.26-.09-17.8-.17-13.33,3.66-22.34a30.6,30.6,0,0,1,7.84-10.94,17.76,17.76,0,0,1,11.47-4.87,18.18,18.18,0,0,1,5.69,1,31.89,31.89,0,0,1,5.71,3q.26.16,1.66,1.4a25,25,0,0,1,5.9,9.67,14.86,14.86,0,0,1,.45,6.8q-.52,4-2.53,5.48-.67.49-2-.33l-1.93-2.12a8.64,8.64,0,0,0,2-6.43A6.73,6.73,0,0,0,508,92.2q-.49-.67-1.93-.39a7.32,7.32,0,0,0-3.21,1.8,11.86,11.86,0,0,0-3,5.26q-2.82,8.56-2.88,9.24-1.67,10.19-2.27,18.68a47.34,47.34,0,0,0,.22,6A38.41,38.41,0,0,1,495,139q-1,15.15-9.11,23.82-3.47,3.81-8.89,9.29-6.71,5.22-16.05,3.08a18.79,18.79,0,0,1-13.43-10.67,19.37,19.37,0,0,1-2-8.89,22,22,0,0,1,.26-2.73q.31-2.52.91-5.95a41,41,0,0,1,1.19-5.23q1.09-3.48,4.25-1.87a20.82,20.82,0,0,0,2.41.78A31.53,31.53,0,0,0,451,159.56Z" transform="translate(-25.3 -24.18)"/><path class="cls-3" d="M576.31,139.41q.67.63,7.88,8a2,2,0,0,1,.68,2.42,2.58,2.58,0,0,1-2.06,1.54,2.77,2.77,0,0,1-2.52-.67l-2.53-2.36A29.24,29.24,0,0,0,575,146a13.55,13.55,0,0,0-1.11-.83L572.24,144a22.56,22.56,0,0,1-2.12,4.64,52.68,52.68,0,0,1-3.2,4.67q-1.87,2.46-2.69,3.79a90.12,90.12,0,0,1-8,9.95q-5.54,6.17-7,8-9.06,11.29-12.84,14.89-1.36,1.46-4.44,5t-4.87,5.22q-1.58,1.47-6.36,6t-7.41,6.94q-3.59,2.95-4.93,1.91a45.53,45.53,0,0,1-7.72-6.36,11.73,11.73,0,0,0-2.88-3.1q-2.29-1.93-2.74-2.35-2.49-2.74-.4-5.2,7.28-9.16,11-13.64,14.19-16.57,29-33.16,6.38-7.06,19.46-21.1A4.09,4.09,0,0,0,555.6,128q.18-1-1.27-2.13-10.19-8.66-8.39-10.13a2,2,0,0,1,.91-.41,6.41,6.41,0,0,1,2.06-.07,6.1,6.1,0,0,1,2.69.94Q562.75,127.39,576.31,139.41Z" transform="translate(-25.3 -24.18)"/><path class="cls-3" d="M118,475.2a101.84,101.84,0,0,1,6.19-9.42L131.1,456l5.38-6.51q3.56-3.82,14-11.91A89.13,89.13,0,0,1,162,429.92a53.47,53.47,0,0,1,9.5-3.3,8,8,0,0,1,2.76-.21,21.13,21.13,0,0,1,3.22.57,20.75,20.75,0,0,0,2.83.55q.33.08,4.29,1.56a25.38,25.38,0,0,1,5.44,3.3,31.32,31.32,0,0,1,3.82,5.74,12.52,12.52,0,0,1,2,5q.91,6.13-6.13,14.65a1.7,1.7,0,0,1-1.94.78,2.77,2.77,0,0,1-1.93-1.4q-.61-.7.31-1.34,2.94-2.35,4.51-8.82a11.62,11.62,0,0,0,.42-2.44,18.79,18.79,0,0,0-1.07-3.28l-1.37-4.12q-2.1-3.73-5.67-1.1a74.19,74.19,0,0,0-13.63,12.63q-9.83,11.4-14.81,17.43-1.1,1.09-3.25,3.69a205.66,205.66,0,0,0-12.12,17.07q-6.72,10.78-7.09,16a22.49,22.49,0,0,1-1.36,5.25l.08.86.86-.08a18.86,18.86,0,0,0,7.3-3.53l9.88-6.17,2.92-1.37q1.57-.69,5,1.38c.38.18.55.42.5.72a1,1,0,0,1-.48.7q-.92.63-2.85,2.12T151,505.11a9.4,9.4,0,0,0-1.12.87,10.08,10.08,0,0,1-1.12.87L147,508.33a27,27,0,0,1-3.15,1.88q-2.13,1.13-2.54,1.39-1.14.65-3.27,1.78t-3,1.64a6.56,6.56,0,0,1-6.41.28q-4.33-2-6.4-3.1a15.26,15.26,0,0,1-5.17-5.07q-6-8.37-2.85-20.88.15-.67,1-3.58A41.34,41.34,0,0,1,118,475.2Z" transform="translate(-25.3 -24.18)"/><path class="cls-3" d="M202.87,466.73a132.78,132.78,0,0,1,9.48-9.3,12.44,12.44,0,0,1,8.62-3,18.68,18.68,0,0,1,9.46,2.87q8.27,4.87,11.38,12,2.52,5.42,2,15.7a38.51,38.51,0,0,1-3.09,12.12,106.12,106.12,0,0,1-5.47,11.43q-1.47,3-4.62,8.46t-4.38,7.9a52,52,0,0,1-5.35,8.23q-6,8.13-9.7,12.55a47.57,47.57,0,0,1-7.61,7.26q-4.47,3.43-12.09.17a50.5,50.5,0,0,1-9.1-4.89q-7.53-5.05-7.13-15.74a3.06,3.06,0,0,0-.28-1.29,4.22,4.22,0,0,1-.34-1.15q-.27-5.62,3.17-16,1.06-2.88,2.28-6.12t2.73-7.18q1.52-3.94,2.28-6.12A89.52,89.52,0,0,1,202.87,466.73Zm-1.41,80.45q1.35-1,2.27-1.79a7.15,7.15,0,0,0,1.42-1.56q9.1-13.47,13-20t8.25-16.17q1.89-4,5.11-12.34A75.14,75.14,0,0,0,235,484.62q.6-2.58,1.84-14.07.36-.85-.77-1.33a1.39,1.39,0,0,0-1.43.22q-4.67,4.68-5.76,6.05-6.34,7.81-11,14.34A94.72,94.72,0,0,0,209.72,503q-2.58,5.25-6.88,16.09-3.18,9-4.4,13.81-2.29,10,1.08,15.82A19,19,0,0,1,201.46,547.18Z" transform="translate(-25.3 -24.18)"/><path class="cls-3" d="M252.42,512.49l1.51-14.2q1.51-14.2,1.82-14.16A93.66,93.66,0,0,1,258.81,470c0-.41.4-.78,1.06-1.11a4.85,4.85,0,0,1,1.77-.57,33.28,33.28,0,0,1,8.44.53l11.67,2,14.94,1.75a5.3,5.3,0,0,1,3,1,2.65,2.65,0,0,1,.8,2.41q-.13,1.07-1.86,1.33-2.44-.29-8.12-.64l-8.13-.49a3.1,3.1,0,0,0-3.43,1.53,5.58,5.58,0,0,0-.07,4.55q2,7,.33,23.53a68.71,68.71,0,0,0-.27,6.92,70.68,70.68,0,0,1-.33,7.38,1.89,1.89,0,0,0,1.87,2.54,17.49,17.49,0,0,1,4.79,1.34,1.5,1.5,0,0,1,1,2c0,.21-.61.39-1.77.57l-1.37-.16q-3.53-.26-4.3.42t-.86,4.07a53.52,53.52,0,0,1-.71,6q-.75,5.09-.88,6.16a13.41,13.41,0,0,1-.31,1.35,3.69,3.69,0,0,0-.18,1.52,41.23,41.23,0,0,1-.58,5q-.47,2.65-1,5.91t-.59,3.72l-1.77,7.21a3.79,3.79,0,0,1-1.42,1.53q-6.25,4.52-12.78,2.21-.75-.24-7.86-1.54a4.63,4.63,0,0,1-3-1.43,5,5,0,0,1-.63-3.17q.53-7.2,1.8-18t1.57-10.71Z" transform="translate(-25.3 -24.18)"/><path class="cls-3" d="M313.55,517.25l-2.26-14.1q-2.26-14.1-2-14.14a93.77,93.77,0,0,1-.76-14.48q-.09-.6.73-1.35a4.87,4.87,0,0,1,1.56-1,33.31,33.31,0,0,1,8.28-1.7l11.78-1.14,14.88-2.22a5.31,5.31,0,0,1,3.13.15,2.65,2.65,0,0,1,1.4,2.12q.16,1.06-1.44,1.77-2.43.36-8,1.5l-8,1.66a3.1,3.1,0,0,0-2.91,2.37,5.59,5.59,0,0,0,1.12,4.41q3.73,6.28,6.48,22.63a68.78,68.78,0,0,0,1.55,6.75,70.48,70.48,0,0,1,1.62,7.21,1.89,1.89,0,0,0,2.47,2,17.46,17.46,0,0,1,5,0,1.5,1.5,0,0,1,1.49,1.64c0,.2-.49.54-1.56,1l-1.37.2q-3.47.67-4,1.53t.23,4.16a53.58,53.58,0,0,1,.89,6q.61,5.11.76,6.17a13.2,13.2,0,0,1,.05,1.39,3.7,3.7,0,0,0,.23,1.52,41.06,41.06,0,0,1,.74,4.93q.24,2.68.58,6t.4,3.74l.18,7.42a3.78,3.78,0,0,1-1,1.85q-4.85,6-11.75,5.48-.78,0-8,.57a4.63,4.63,0,0,1-3.27-.6,5,5,0,0,1-1.44-2.89q-1.37-7.09-3-17.79t-1.29-10.75Z" transform="translate(-25.3 -24.18)"/><path class="cls-3" d="M426.4,539.16a11.13,11.13,0,0,1,1.82-.43q1.59-.17,1.87.88a6.63,6.63,0,0,0-.3,1.46,10.24,10.24,0,0,1-.35,1.73,2.16,2.16,0,0,1-.58,1,22.13,22.13,0,0,1-6.68,4.32q-6.16,2.77-18.16,7.5a6.66,6.66,0,0,1-4.75,0,7,7,0,0,1-3.64-3.3q-8.89-14.74-20.95-43.31-2.57-6.08-6.58-17.55t-5.18-14.64q-1.11-3-4-9a3.31,3.31,0,0,1,1.48-4.79q8.13-4.43,12.37-6.22,2.69-1.13,13-4.32a7.79,7.79,0,0,1,2.52-.73,4,4,0,0,1,2.27,1,1.76,1.76,0,0,1-.08,1.2,2.48,2.48,0,0,1-.62,1.09L384.15,458q-.57.24-4.76,1.34,3.23,3.3,4.31,4.68.06.14,4.73,8.83a100.71,100.71,0,0,1,6.09,12.84q3,7.49,5.22,14t2.19,7.16q0,2.68,2.69,2a38.72,38.72,0,0,1,6.36-1.52q2.56-.24,3.06.54.54,1.27-1,3.1a8.45,8.45,0,0,1-2.93,1.74,23.86,23.86,0,0,1-4.16,1.59q1.23,3.31,3.16,9.66t3.07,9.45a93,93,0,0,0,4.13,9Q425.63,539.32,426.4,539.16Z" transform="translate(-25.3 -24.18)"/><path class="cls-3" d="M480.41,503.78a11.07,11.07,0,0,1,1.67-.84q1.51-.53,2,.43a6.67,6.67,0,0,0,0,1.49,10.21,10.21,0,0,1,.05,1.77,2.15,2.15,0,0,1-.34,1.1,22.09,22.09,0,0,1-5.51,5.73q-5.37,4.11-16,11.46a6.66,6.66,0,0,1-4.62,1.09,7,7,0,0,1-4.3-2.37q-12-12.32-30.3-37.37-3.89-5.33-10.42-15.58t-8.39-13.07q-1.78-2.69-5.92-7.85a3.32,3.32,0,0,1,.34-5q6.9-6.17,10.62-8.89,2.35-1.72,11.67-7.18a7.81,7.81,0,0,1,2.29-1.29,4,4,0,0,1,2.45.49,1.77,1.77,0,0,1,.2,1.19,2.48,2.48,0,0,1-.35,1.21l-4.94,4.17q-.5.36-4.33,2.4,3.9,2.48,5.26,3.57.09.12,6.63,7.52a100.72,100.72,0,0,1,8.87,11.11q4.63,6.6,8.28,12.39t3.77,6.47q.58,2.62,3.08,1.36a38.8,38.8,0,0,1,5.84-2.93q2.44-.82,3.1-.17.81,1.12-.29,3.25a8.45,8.45,0,0,1-2.46,2.36,23.8,23.8,0,0,1-3.69,2.5q2,2.95,5.29,8.68t5.15,8.5a93.33,93.33,0,0,0,6.08,7.82Q479.7,504.11,480.41,503.78Z" transform="translate(-25.3 -24.18)"/></svg>
