<?xml version="1.0"?>
<svg xmlns="http://www.w3.org/2000/svg" class="" transform="" viewBox="-60 0 464 464" width="512px" height="512px"><g transform="matrix(1, 0, 0, 1, 0, 0)"><path fill="#faa400" d="m 192 432 h -16 l 24 -112 h -32 l -24 112 h -16 c -8.83594 0 -16 7.16406 -16 16 v 16 h 96 v -16 c 0 -8.83594 -7.16406 -16 -16 -16 Z m 0 0" data-original="#FAA400"/><path fill="#f59a1b" d="m 184.566 392 l 15.4336 -72 h -32 l -15.4336 72 Z m 0 0" data-original="#F59A1B"/><path class="" fill="#fdbb3d" d="m 256 432 h -16 l 24 -112 h -32 l -24 112 h -16 c -8.83594 0 -16 7.16406 -16 16 v 16 h 96 v -16 c 0 -8.83594 -7.16406 -16 -16 -16 Z m 0 0" data-original="#FDBB3D"/><path fill="#faa400" d="m 248.566 392 l 15.4336 -72 h -32 l -15.4336 72 Z m 0 0" data-original="#FAA400"/><path fill="#e3e3e1" d="m 144 240 v -208 c 0 -17.6719 -14.3281 -32 -32 -32 h -32 v 280 c 0 53.0195 42.9805 96 96 96 h 68.6719 c 36.3594 0 69.6016 -20.543 85.8633 -53.0625 c 8.85547 -17.7148 13.4648 -37.2461 13.4648 -57.0508 v -49.8867 c -15.3672 0 -30.1016 6.10156 -40.9688 16.9688 l -7.03125 7.03125 Z m 0 0" data-original="#E3E3E1"/><path class="" style="fill:#5F361D" fill="#7a3e1a" d="m 104 24 h 16 v 16 h -16 Z m 0 0" data-original="#7A3E1A" data-old_color="#7A3E1A"/><path class="" fill="#f0f0f0" d="m 296 312 h -140 c -19.7617 0 -35.8281 -15.9258 -36 -35.6875 c -0.082031 -9.60156 3.67188 -18.8398 10.4336 -25.6602 c 6.76172 -6.81641 15.9648 -10.6523 25.5664 -10.6523 h 81.3984 c 20.6602 -0.007812 39.0039 13.207 45.5469 32.8008 Z m 0 0" data-original="#F0F0F0"/><path fill="#faa400" d="m 48 24 l -37.1445 6.19141 c -6.26563 1.04297 -10.8555 6.46484 -10.8555 12.8164 c 0 7.17578 5.81641 12.9922 12.9922 12.9922 h 67.0078 v -56 h -8 c -13.2539 0 -24 10.7461 -24 24 Z m 0 0" data-original="#FAA400"/><g fill="#dbdbd9"><path class="active-path" style="fill:#A3A497" d="m 278.84 264 h -86.8398 v 16 h 93.3359 l -2.39844 -7.19922 c -1.06641 -3.06641 -2.4375 -6.01172 -4.09766 -8.80078 Z m 0 0" data-original="#000000" data-old_color="#9A9B84"/><path class="active-path" style="fill:#A3A497" d="m 290.945 296.801 l 5.05469 15.1992 h -140 c -10.832 -0.03125 -21.0703 -4.96875 -27.8398 -13.4258 c 0 0.585937 -0.160156 1.14453 -0.160156 1.73828 c 0.171875 19.7617 16.2383 35.6875 36 35.6875 h 140 Z m 0 0" data-original="#000000" data-old_color="#9A9B84"/></g></g> </svg>
