<svg height="464pt" viewBox="-60 0 464 464" width="464pt" xmlns="http://www.w3.org/2000/svg"><path d="m192 432h-16l24-112h-32l-24 112h-16c-8.835938 0-16 7.164062-16 16v16h96v-16c0-8.835938-7.164062-16-16-16zm0 0" fill="#faa400"/><path d="m184.566406 392 15.433594-72h-32l-15.433594 72zm0 0" fill="#f59a1b"/><path d="m256 432h-16l24-112h-32l-24 112h-16c-8.835938 0-16 7.164062-16 16v16h96v-16c0-8.835938-7.164062-16-16-16zm0 0" fill="#fdbb3d"/><path d="m248.566406 392 15.433594-72h-32l-15.433594 72zm0 0" fill="#faa400"/><path d="m144 240v-208c0-17.671875-14.328125-32-32-32h-32v280c0 53.019531 42.980469 96 96 96h68.671875c36.359375 0 69.601563-20.542969 85.863281-53.0625 8.855469-17.714844 13.464844-37.246094 13.464844-57.050781v-49.886719c-15.367188 0-30.101562 6.101562-40.96875 16.96875l-7.03125 7.03125zm0 0" fill="#e3e3e1"/><path d="m104 24h16v16h-16zm0 0" fill="#7a3e1a"/><path d="m296 312h-140c-19.761719 0-35.828125-15.925781-36-35.6875-.082031-9.601562 3.671875-18.839844 10.433594-25.660156 6.761718-6.816406 15.964844-10.652344 25.566406-10.652344h81.398438c20.660156-.007812 39.003906 13.207031 45.546874 32.800781zm0 0" fill="#f0f0f0"/><path d="m48 24-37.144531 6.191406c-6.265625 1.042969-10.855469 6.464844-10.855469 12.816406 0 7.175782 5.816406 12.992188 12.992188 12.992188h67.007812v-56h-8c-13.253906 0-24 10.746094-24 24zm0 0" fill="#faa400"/><g fill="#dbdbd9"><path d="m278.839844 264h-86.839844v16h93.335938l-2.398438-7.199219c-1.066406-3.066406-2.4375-6.011719-4.097656-8.800781zm0 0"/><path d="m290.945312 296.800781 5.054688 15.199219h-140c-10.832031-.03125-21.070312-4.96875-27.839844-13.425781 0 .585937-.160156 1.144531-.160156 1.738281.171875 19.761719 16.238281 35.6875 36 35.6875h140zm0 0"/></g></svg>