<?xml version="1.0"?>
<svg xmlns="http://www.w3.org/2000/svg" xmlns:xlink="http://www.w3.org/1999/xlink" class="" id="Capa_1" style="enable-background:new 0 0 512 512;" viewBox="0 0 512 512" x="0px" y="0px" width="512px" height="512px" version="1.1" xml:space="preserve"><g><g>
	<path class="" style="fill:#C4CCD4" d="M 479.18 91.897 H 32.821 C 14.69 91.897 0 77.207 0 59.077 s 14.69 -32.821 32.821 -32.821 H 479.18 c 18.13 0 32.82 14.69 32.82 32.821 S 497.31 91.897 479.18 91.897 Z" data-original="#FF485A" data-old_color="#909AA5"/>
	<path class="" style="fill:#C4CCD4" d="M 295.385 288.821 H 32.821 C 14.69 288.821 0 274.13 0 256 s 14.69 -32.821 32.821 -32.821 h 262.564 c 18.13 0 32.821 14.69 32.821 32.821 S 313.515 288.821 295.385 288.821 Z" data-original="#FF485A" data-old_color="#909AA5"/>
</g><path class="active-path" style="fill:#4D5A63" d="M 479.18 288.821 h -52.513 c -18.13 0 -32.821 -14.69 -32.821 -32.821 s 14.69 -32.821 32.821 -32.821 h 52.513 c 18.13 0 32.82 14.69 32.82 32.821 S 497.31 288.821 479.18 288.821 Z" data-original="#FFBBC0" data-old_color="#B5BEC4"/><path class="" style="fill:#C4CCD4" d="M 479.18 485.744 H 32.821 C 14.69 485.744 0 471.053 0 452.923 c 0 -18.13 14.69 -32.821 32.821 -32.821 H 479.18 c 18.13 0 32.82 14.69 32.82 32.821 C 512 471.053 497.31 485.744 479.18 485.744 Z" data-original="#FF485A" data-old_color="#909AA5"/></g> </svg>
