<?xml version="1.0" standalone="no"?>
<!DOCTYPE svg PUBLIC "-//W3C//DTD SVG 20010904//EN"
 "http://www.w3.org/TR/2001/REC-SVG-20010904/DTD/svg10.dtd">
<svg version="1.0" xmlns="http://www.w3.org/2000/svg"
 width="1280.000000pt" height="661.000000pt" viewBox="0 0 1280.000000 661.000000"
 preserveAspectRatio="xMidYMid meet">
<g transform="translate(0.000000,661.000000) scale(0.100000,-0.100000)"
fill="#43e591" stroke="none">
<path d="M3176 6510 c-15 -132 -77 -264 -173 -368 -50 -55 -52 -56 -67 -37
-52 67 -184 256 -218 313 -40 67 -40 67 -34 27 18 -129 26 -322 17 -402 -15
-134 -17 -138 -123 -188 -90 -42 -280 -116 -383 -148 -148 -46 -494 -157 -665
-212 -270 -88 -418 -135 -680 -216 -227 -70 -287 -87 -640 -180 -107 -28 -198
-54 -202 -58 -13 -11 56 -103 121 -164 34 -31 99 -79 144 -105 45 -27 107 -65
137 -84 132 -85 316 -160 509 -208 107 -27 188 -42 391 -72 49 -7 332 -12 810
-13 810 -2 818 -2 994 -66 124 -45 195 -95 336 -237 191 -193 347 -394 655
-842 92 -135 190 -275 216 -312 27 -37 49 -71 49 -75 0 -5 -35 -18 -78 -31
-109 -33 -290 -106 -406 -164 -592 -296 -970 -761 -1098 -1348 -20 -94 -23
-131 -22 -360 0 -238 2 -264 27 -388 15 -73 31 -142 36 -154 4 -12 6 62 3 163
-8 338 37 577 159 838 212 451 618 766 1169 906 118 30 436 85 490 85 54 0 75
-32 75 -115 -1 -116 -74 -285 -261 -600 -55 -93 -136 -231 -179 -305 -211
-364 -441 -672 -705 -944 l-125 -129 110 73 c411 274 829 670 1219 1156 97
122 142 189 224 337 116 210 186 319 229 360 33 31 -18 16 1288 370 1789 485
2697 713 3565 892 96 20 182 38 191 41 14 4 17 -9 23 -83 49 -605 447 -1135
1081 -1439 107 -51 290 -124 312 -124 3 0 -45 34 -107 75 -61 41 -146 103
-188 139 -112 93 -278 268 -349 369 -122 174 -216 390 -248 575 -15 84 -21
352 -8 352 3 0 41 -27 84 -60 224 -173 501 -302 779 -361 142 -31 450 -34 580
-6 175 38 329 101 467 193 46 31 82 58 80 60 -3 3 -40 -9 -82 -26 -135 -54
-225 -71 -395 -77 -182 -6 -287 8 -447 62 -115 38 -197 78 -296 141 -195 126
-254 233 -355 649 -33 132 -73 276 -91 320 -42 105 -110 212 -182 290 l-59 62
93 81 c215 188 380 423 447 637 31 98 38 268 16 367 -24 107 -33 111 -34 16
-1 -146 -48 -288 -142 -429 -53 -79 -183 -209 -271 -271 -123 -88 -296 -164
-420 -184 -24 -4 -260 -8 -524 -9 -315 -1 -568 -8 -735 -18 -969 -63 -1723
-63 -2220 -2 -183 23 -573 78 -745 105 -33 5 -91 14 -130 20 -583 87 -1388
254 -1865 387 -312 87 -396 144 -590 403 -35 47 -123 155 -194 240 -218 260
-311 394 -362 518 l-21 53 -7 -61z"/>
</g>
</svg>
